Coordinates
version=1
nRows=12
nColumns=24
inDegrees=yes

Units are S.I. units (second, meters, Newtons, ...)
Angles are in degrees.

endheader
time	pelvis_tilt	pelvis_list	pelvis_rotation	pelvis_tx	pelvis_ty	pelvis_tz	hip_flexion_r	hip_adduction_r	hip_rotation_r	knee_angle_r	ankle_angle_r	subtalar_angle_r	mtp_angle_r	hip_flexion_l	hip_adduction_l	hip_rotation_l	knee_angle_l	ankle_angle_l	subtalar_angle_l	mtp_angle_l	lumbar_extension	lumbar_bending	lumbar_rotation
      1.15850000	     -0.99358332	      1.89411253	     -3.70787125	      0.08720760	      1.01202764	      0.29729104	     19.91079079	     -5.75105783	     -6.88364873	    -68.55811751	      1.65396407	    -11.93852032	      1.84931411	     14.62124098	      2.75069616	     -7.99612807	    -17.95635854	      3.30733147	    -12.02375641	    -12.27562860	    -10.92897481	     -3.95314706	      2.35405083
      1.16266667	     -0.95264686	      1.72235674	     -3.57843417	      0.09227724	      1.01311053	      0.29692400	     20.36673785	     -5.50080699	     -6.99963558	    -68.18123583	      1.98844657	    -11.79125671	      1.71454207	     14.13133634	      2.65615460	     -7.83133920	    -17.72308658	      3.46172253	    -11.92522445	    -12.31749804	    -11.03610863	     -3.73588069	      2.19214538
      1.16683333	     -0.98592444	      1.60874532	     -3.52368765	      0.09734591	      1.01402615	      0.29675525	     20.92463147	     -5.27259083	     -7.03759911	    -67.77492163	      2.30425479	    -11.78846222	      1.68725083	     13.70674245	      2.59542865	     -7.74525684	    -17.45220384	      3.53417371	    -11.93169209	    -12.32746339	    -11.04127860	     -3.60283664	      2.14922700
      1.17100000	     -0.93101985	      1.40874643	     -3.38593226	      0.10235863	      1.01511074	      0.29637616	     21.32104861	     -5.00005432	     -7.18550912	    -67.23873265	      2.61247792	    -11.59760917	      1.55220123	     13.20578295	      2.46786047	     -7.57255528	    -17.21947974	      3.66645259	    -11.83673999	    -12.37446224	    -11.18960891	     -3.33719007	      1.98381729
      1.17516667	     -0.96884805	      1.27720475	     -3.33563553	      0.10737450	      1.01599266	      0.29623945	     21.84378573	     -4.74720067	     -7.23119327	    -66.68342175	      2.90368459	    -11.56471145	      1.50835119	     12.78498193	      2.38231896	     -7.48696121	    -16.93681914	      3.69857472	    -11.85352951	    -12.39239710	    -11.20601877	     -3.17863581	      1.92590266
      1.17933333	     -0.92316247	      1.09091250	     -3.20322791	      0.11245021	      1.01705009	      0.29584586	     22.20418294	     -4.50187304	     -7.40184460	    -65.99620237	      3.11967203	    -11.43703768	      1.38175381	     12.26834276	      2.26955764	     -7.31493348	    -16.65114002	      3.82747556	    -11.78390469	    -12.44036888	    -11.32154829	     -2.91461004	      1.78486598
      1.18350000	     -0.87743906	      0.92792528	     -3.09846217	      0.11753515	      1.01808633	      0.29556135	     22.55154800	     -4.26380614	     -7.54530510	    -65.24943855	      3.34196801	    -11.37472156	      1.22425007	     11.73890117	      2.17171739	     -7.16872285	    -16.33213295	      3.87410000	    -11.79750562	    -12.50477270	    -11.42498780	     -2.71687892	      1.64941388
      1.18766667	     -0.95438811	      0.83691430	     -3.06763163	      0.12259587	      1.01881020	      0.29542966	     23.06253528	     -4.06503644	     -7.59679245	    -64.51005936	      3.58297818	    -11.33828237	      1.19765624	     11.34163481	      2.12292702	     -7.11617590	    -16.00669451	      3.91024610	    -11.80309284	    -12.51711068	    -11.37667137	     -2.58574892	      1.61548427
      1.19183333	     -0.89179674	      0.62487934	     -2.91956176	      0.12767937	      1.01986039	      0.29504598	     23.31919083	     -3.80323419	     -7.81331332	    -63.59108911	      3.74100300	    -11.26415356	      1.06909904	     10.80015639	      1.97850331	     -6.92481051	    -15.70054052	      4.00389577	    -11.76153405	    -12.57101498	    -11.51152579	     -2.31667722	      1.47590701
      1.19600000	     -0.96626602	      0.52394877	     -2.89102923	      0.13274011	      1.02054797	      0.29495693	     23.77382791	     -3.59150318	     -7.87192285	    -62.70710712	      3.95342961	    -11.21369383	      1.03327912	     10.39523231	      1.91427539	     -6.87032574	    -15.36136726	      4.00783038	    -11.78741431	    -12.58848025	    -11.46977921	     -2.18918669	      1.41873650
      1.20016667	     -0.86223199	      0.32309342	     -2.74158411	      0.13786446	      1.02161524	      0.29452085	     23.93272036	     -3.36316379	     -8.11511297	    -61.65137696	      4.05304357	    -11.18546916	      0.91632442	      9.78950981	      1.78769573	     -6.67385312	    -15.01166769	      4.10420896	    -11.78289137	    -12.63786435	    -11.64471572	     -1.90531997	      1.28059057
      1.20433333	     -0.95151064	      0.24447134	     -2.71844168	      0.14294778	      1.02220502	      0.29445486	     24.35860416	     -3.17970766	     -8.17887198	    -60.65226727	      4.27157303	    -11.15147383	      0.88368719	      9.39502791	      1.74311273	     -6.63348648	    -14.65624011	      4.09200196	    -11.80750121	    -12.65404539	    -11.57805004	     -1.80415543	      1.21943878
